<svg width="198" height="156" viewBox="0 0 198 156" fill="none" xmlns="http://www.w3.org/2000/svg">
<path d="M140.43 68.6655C139.28 68.6655 138.137 68.6852 137.003 68.7246C140.721 55.3206 139.422 42.606 132.166 33.1881C117.238 13.801 82.3552 15.2229 51.6005 35.453C37.2867 9.87395 10.1557 -4.71169 -16.4947 1.3778C-42.5621 7.32944 -60.4603 31.2975 -62.9064 59.7203C-66.8374 60.0788 -70.8471 60.8547 -74.8569 62.0915C-86.5238 65.6956 -96.0401 72.5098 -102.138 80.7185C-110.433 78.0755 -120.016 76.563 -130.226 76.563C-158.105 76.563 -181.309 87.8124 -186.315 102.686C-200.322 103.757 -211 109.323 -211 116.03C-211 123.502 -197.746 129.564 -181.395 129.564C-178.93 129.564 -176.539 129.427 -174.246 129.167C-163.773 136.296 -147.943 140.841 -130.222 140.841C-113.474 140.841 -98.4074 136.78 -87.9655 130.313C-78.0632 134.09 -65.8369 134.547 -53.6461 130.785C-48.2262 129.111 -43.2711 126.744 -38.9068 123.865C-24.1046 137.745 -4.35114 144.355 15.1423 139.904C20.5465 138.671 25.5961 136.658 30.2321 133.996C40.7371 137.966 53.9875 137.899 67.8523 133.964C69.8926 145.982 82.1071 155.218 96.8699 155.218C112.46 155.218 125.206 144.922 126.136 131.932C130.705 132.593 135.495 132.948 140.43 132.948C171.961 132.948 197.52 118.559 197.52 100.807C197.52 83.0542 171.961 68.6655 140.43 68.6655Z" fill="white"/>
<path d="M197.52 100.807C197.52 97.8289 196.799 94.9496 195.452 92.2121C176.191 81.4432 118.049 96.8442 118.049 96.8442C133.73 77.5122 118.049 56.2502 90.9852 48.3016C63.9212 40.3529 43.7345 73.0022 43.7345 73.0022C66.5012 25.7515 -5.23746 10.2875 -28.2168 21.6709C-51.2001 33.0542 -12.3235 36.7055 7.86717 39.7109C28.0578 42.7162 10.4432 50.0189 -19.8389 52.5989C-50.1248 55.1749 -50.5541 86.3195 -50.5541 86.3195C-82.7702 75.5822 -102.748 105.222 -102.748 105.222C-144.847 85.8902 -177.921 115.53 -177.921 115.53C-191.715 106.368 -205.253 111.103 -210.653 118.098C-208.475 124.59 -196.206 129.56 -181.396 129.56C-178.93 129.56 -176.539 129.423 -174.246 129.163C-163.773 136.292 -147.943 140.837 -130.222 140.837C-113.474 140.837 -98.4075 136.776 -87.9655 130.309C-78.0632 134.086 -65.837 134.543 -53.6462 130.781C-48.2263 129.107 -43.2712 126.74 -38.9069 123.861C-24.1046 137.741 -4.35121 144.351 15.1423 139.9C20.5464 138.667 25.596 136.654 30.2321 133.992C40.737 137.962 53.9874 137.895 67.8522 133.96C69.8925 145.978 82.107 155.214 96.8698 155.214C112.46 155.214 125.206 144.918 126.136 131.928C130.705 132.589 135.494 132.944 140.43 132.944C171.96 132.944 197.52 118.555 197.52 100.803V100.807Z" fill="#DEF1FB"/>
<path d="M15.1383 139.904C20.5425 138.671 25.5921 136.658 30.2281 133.995C40.7331 137.966 53.9835 137.899 67.8483 133.964C69.8886 145.981 82.1031 155.218 96.866 155.218C112.456 155.218 125.202 144.922 126.132 131.931C130.701 132.593 135.491 132.948 140.426 132.948C163.358 132.948 183.131 125.334 192.21 114.352C162.87 139.896 122.776 119.398 122.776 119.398C122.776 119.398 119.912 146.316 93.8527 144.028C67.7932 141.735 67.5056 110.52 67.5056 110.52C55.4763 135.721 18.2501 123.691 17.9625 123.12C34.8603 111.95 33.9976 93.3384 33.9976 93.3384C-3.8037 129.422 -59.1448 107.802 -59.1448 107.802C-58.9282 115.751 -43.6808 117.681 -43.6808 117.681C-61.0788 134.862 -94.5828 125.629 -94.5828 125.629C-133.889 149.255 -176.417 122.624 -176.417 122.624C-186.733 126.582 -203.835 123.561 -210.906 117.058C-209.759 124.054 -196.989 129.568 -181.396 129.568C-178.93 129.568 -176.539 129.43 -174.246 129.17C-163.773 136.3 -147.943 140.845 -130.222 140.845C-113.474 140.845 -98.4075 136.784 -87.9655 130.316C-78.0632 134.094 -65.837 134.551 -53.6461 130.789C-48.2263 129.115 -43.2712 126.748 -38.9069 123.869C-24.1046 137.749 -4.3512 144.359 15.1423 139.908L15.1383 139.904Z" fill="#B6D9FF"/>
</svg>
