<svg width="186" height="146" viewBox="0 0 186 146" fill="none" xmlns="http://www.w3.org/2000/svg">
<path d="M357.632 67.5643C354.832 67.5643 352.173 67.9436 349.768 68.6279C347.218 65.5778 343.816 62.9891 339.82 61.0495C340 60.4864 340.101 59.9116 340.101 59.3211C340.101 54.0147 332.468 49.7132 323.048 49.7132C319.798 49.7132 316.76 50.2255 314.175 51.1171C310.808 47.8753 306.237 45.8732 301.193 45.8732C300.708 45.8732 300.227 45.8966 299.75 45.9357C299.75 45.9162 299.75 45.8966 299.75 45.8732C299.75 35.5262 291.362 27.1383 281.015 27.1383C275.818 27.1383 271.117 29.2539 267.723 32.6716C265.303 21.4096 255.292 12.967 243.306 12.967C236.307 12.967 229.984 15.8489 225.448 20.4906C219.351 8.34093 206.787 0 192.272 0C175.793 0 161.833 10.7458 156.992 25.6055C152.514 21.3509 146.461 18.7309 139.794 18.7309C132.516 18.7309 125.97 21.8436 121.403 26.8099C114.657 17.55 103.732 11.524 91.3983 11.524C73.8444 11.524 59.1452 23.7206 55.2895 40.0975C53.7214 39.7886 52.1064 39.6243 50.4484 39.6243C36.6524 39.6243 25.4686 50.8081 25.4686 64.6041C25.4686 66.7509 25.7384 68.8352 26.2507 70.8217C11.043 73.4221 0.0117188 81.1608 0.0117188 90.3034C0.0117188 101.577 16.7874 110.72 37.4775 110.72C47.9105 110.72 57.3424 108.397 64.1348 104.647C68.3346 107.853 73.5785 109.758 79.2682 109.758C83.7339 109.758 87.9219 108.581 91.5469 106.528C99.4929 116.652 112.761 124.95 128.841 128.645C146.011 132.587 162.588 130.405 174.342 123.812C180.333 127.644 187.247 130.166 194.68 130.952C196.839 139.344 204.456 145.55 213.525 145.55C221.999 145.55 229.206 140.13 231.872 132.567C237.914 135.344 244.628 136.904 251.714 136.904C267 136.904 280.592 129.685 289.293 118.478C294.029 122.193 299.992 124.418 306.475 124.418C318.821 124.418 329.281 116.39 332.937 105.269C341.482 103.059 348.419 98.179 352.055 91.9223C353.823 92.2586 355.696 92.4424 357.632 92.4424C368.377 92.4424 377.086 86.874 377.086 80.0073C377.086 73.1406 368.377 67.5721 357.632 67.5721V67.5643ZM159.968 58.8675C159.885 58.8323 159.803 58.7971 159.721 58.7619C160.155 58.191 160.562 57.5966 160.945 56.9866C160.992 57.057 161.035 57.1274 161.082 57.1978C160.699 57.7452 160.327 58.3044 159.968 58.8675Z" fill="white"/>
<path d="M357.632 92.4305C368.377 92.4305 377.086 86.862 377.086 79.9953C377.086 77.6256 376.05 75.4123 374.247 73.5275C364.295 68.4439 348.904 74.3682 348.904 74.3682C338.975 65.7223 327.287 70.2036 325.046 70.6846C322.805 71.1656 317.839 71.4862 326.489 68.7646C335.135 66.0429 342.823 62.5196 327.291 58.5154C311.758 54.5111 308.876 66.3597 308.556 70.2036C308.235 74.0476 306.714 71.803 306.714 71.803C298.788 40.5782 262.522 52.8296 262.522 52.8296C259.159 26.6493 226.738 35.2953 224.576 38.1772C222.413 41.0592 215.687 45.6227 219.293 35.7762C222.894 25.9298 210.885 13.6784 188.068 15.1214C165.251 16.5643 159.725 32.1747 168.613 38.6582C177.502 45.1417 173.896 59.5555 156.843 49.9476C139.79 40.3397 117.934 51.1481 111.689 53.5491C105.445 55.9501 102.324 54.2686 107.846 50.4286C113.371 46.5847 136.184 36.9806 109.046 29.7737C81.9077 22.5668 68.6983 39.9408 65.4957 54.0301C49.2009 45.7674 35.5418 48.0354 26.7473 56.7009C25.9183 59.184 25.4647 61.8392 25.4647 64.6C25.4647 66.7468 25.7345 68.831 26.2467 70.8175C11.0391 73.418 0.0078125 81.1567 0.0078125 90.2993C0.0078125 101.573 16.7835 110.716 37.4736 110.716C47.9066 110.716 57.3385 108.393 64.1309 104.643C68.3307 107.849 73.5746 109.754 79.2642 109.754C83.7299 109.754 87.918 108.577 91.543 106.524C99.489 116.648 112.757 124.946 128.837 128.641C146.007 132.583 162.584 130.401 174.338 123.808C180.329 127.64 187.243 130.162 194.676 130.948C196.835 139.34 204.453 145.546 213.521 145.546C221.995 145.546 229.202 140.126 231.869 132.563C237.91 135.34 244.624 136.9 251.71 136.9C266.996 136.9 280.589 129.681 289.289 118.474C294.025 122.189 299.988 124.414 306.472 124.414C318.817 124.414 329.277 116.386 332.933 105.264C341.478 103.055 348.415 98.1749 352.051 91.9182C353.819 92.2545 355.692 92.4383 357.628 92.4383L357.632 92.4305ZM159.968 58.8634C159.885 58.8282 159.803 58.793 159.721 58.7578C160.155 58.1869 160.562 57.5925 160.945 56.9825C160.992 57.0529 161.035 57.1232 161.082 57.1936C160.699 57.7411 160.327 58.3003 159.968 58.8634Z" fill="#DEF1FB"/>
<path d="M376.82 82.0447C368.585 91.637 349.467 83.3351 349.467 83.3351C345.865 101.828 312.959 108.553 312.959 108.553C325.687 95.825 319.685 83.0966 319.685 83.0966C306.237 111.916 271.168 97.268 271.168 97.268C272.85 106.633 286.298 107.357 286.298 107.357C241.625 128.493 235.619 93.6665 235.619 93.6665C223.371 126.092 192.866 109.758 192.866 109.758C210.158 93.905 203.432 70.3682 203.432 70.3682C193.585 105.433 153.234 97.9875 153.234 97.9875C155.154 109.034 167.644 111.678 167.644 111.678C118.169 129.451 97.0332 88.3796 97.0332 88.3796C77.5789 101.108 67.49 88.141 67.49 88.141C32.2258 103.618 16.7796 89.0483 18.4103 72.7261C7.39071 76.2807 0 82.819 0 90.3035C0 101.577 16.7757 110.72 37.4658 110.72C47.8988 110.72 57.3307 108.397 64.1231 104.647C68.3229 107.853 73.5668 109.758 79.2564 109.758C83.7221 109.758 87.9102 108.581 91.5352 106.528C99.4811 116.652 112.749 124.95 128.829 128.645C146 132.587 162.576 130.405 174.331 123.812C180.321 127.644 187.235 130.166 194.669 130.952C196.827 139.344 204.445 145.55 213.513 145.55C221.987 145.55 229.194 140.13 231.861 132.567C237.902 135.344 244.617 136.904 251.702 136.904C266.988 136.904 280.581 129.685 289.281 118.478C294.017 122.193 299.98 124.418 306.464 124.418C318.809 124.418 329.269 116.39 332.926 105.269C341.47 103.059 348.407 98.1791 352.044 91.9224C353.811 92.2587 355.684 92.4425 357.62 92.4425C367.275 92.4425 375.279 87.9494 376.808 82.0564L376.82 82.0447Z" fill="#B6D9FF"/>
</svg>
