<svg width="59" height="118" viewBox="0 0 59 118" fill="none" xmlns="http://www.w3.org/2000/svg">
<path d="M-152.911 51.7054C-151.914 51.7054 -150.939 51.7988 -150.002 51.9706C-149.647 47.1672 -145.639 43.3835 -140.746 43.3835C-139.435 43.3835 -138.187 43.6562 -137.056 44.1455C-135.304 39.5812 -130.881 36.3391 -125.697 36.3391C-123.31 36.3391 -121.084 37.0301 -119.205 38.2178C-119.728 27.4084 -114.451 17.4767 -105.098 13.6332C-95.6031 9.73001 -84.6779 13.241 -77.4429 21.5629C-71.9822 17.3758 -65.1543 14.8882 -57.7401 14.8882C-54.4084 14.8882 -51.1924 15.3925 -48.1633 16.3262C-46.0043 6.83528 -39.9646 0 -32.8455 0C-26.5369 0 -21.0798 5.36738 -18.413 13.1925C-13.3967 10.0101 -7.45036 8.16499 -1.07076 8.16499C9.31663 8.16499 18.5611 13.0505 24.4925 20.6478C25.2432 20.5469 26.0052 20.4909 26.7821 20.4909C36.0228 20.4909 43.5603 27.7744 43.9711 36.9143C52.6254 40.5373 58.71 49.0908 58.71 59.0673C58.71 72.327 47.9603 83.0804 34.6968 83.0804C33.4082 83.0804 32.142 82.9759 30.9094 82.7816C29.2435 93.4081 22.8303 101.33 15.1658 101.33C12.0097 101.33 9.06264 99.9819 6.57505 97.6549C1.58865 109.14 -9.85204 117.175 -23.1715 117.175C-35.1725 117.175 -45.6495 110.653 -51.2522 100.96C-55.6522 106.451 -62.409 109.97 -69.9951 109.97C-81.1407 109.97 -90.5084 102.376 -93.2164 92.0784C-94.4975 92.5378 -95.8758 92.788 -97.3138 92.788C-102.296 92.788 -106.577 89.7925 -108.459 85.5045C-110.122 90.2444 -114.634 93.6434 -119.941 93.6434C-126.661 93.6434 -132.107 88.1976 -132.107 81.4781C-132.107 81.3137 -132.099 81.1494 -132.095 80.9888C-137.485 81.4967 -142.699 79.6479 -145.983 75.5056C-146.124 75.3226 -146.263 75.1396 -146.393 74.9528C-148.343 75.8455 -150.562 76.3535 -152.915 76.3535C-160.695 76.3535 -167 70.8367 -167 64.0276C-167 57.2184 -160.691 51.7016 -152.915 51.7016L-152.911 51.7054Z" fill="white"/>
<path d="M-167 64.0314C-167 61.7007 -166.261 59.5231 -164.976 57.663C-153.628 49.7669 -131.677 57.465 -131.677 57.465C-126.982 39.3235 -106.812 46.5809 -106.812 46.5809C-99.1291 28.0135 -72.2361 43.3799 -72.2361 43.3799C-64.0712 25.13 -41.0217 33.6162 -33.8166 36.3354C-26.6116 39.0583 -24.6394 34.3072 -37.3388 28.2264C-50.0383 22.1419 -43.4234 14.5671 -31.3626 16.3823C-19.3019 18.1976 -18.6632 27.4794 -18.5549 29.1901C-18.4466 30.8971 -18.6072 31.0577 -14.9281 29.9371C7.48269 20.3341 25.4113 40.6084 28.9335 48.5044C38.1742 42.9242 49.9548 45.098 57.6791 52.1014C58.3477 54.3088 58.71 56.647 58.71 59.0711C58.71 72.3308 47.9603 83.0843 34.6968 83.0843C33.4082 83.0843 32.142 82.9797 30.9094 82.7854C29.2435 93.4119 22.8303 101.334 15.1658 101.334C12.0097 101.334 9.06264 99.9857 6.57505 97.6587C1.58865 109.144 -9.85204 117.179 -23.1715 117.179C-35.1725 117.179 -45.6495 110.657 -51.2522 100.964C-55.6522 106.455 -62.409 109.973 -69.9951 109.973C-81.1407 109.973 -90.5084 102.38 -93.2164 92.0822C-94.4975 92.5416 -95.8758 92.7919 -97.3138 92.7919C-102.296 92.7919 -106.577 89.7963 -108.459 85.5084C-110.122 90.2482 -114.634 93.6472 -119.941 93.6472C-126.661 93.6472 -132.107 88.2014 -132.107 81.4819C-132.107 81.3175 -132.099 81.1532 -132.095 80.9926C-137.485 81.5006 -142.699 79.6517 -145.983 75.5094C-146.124 75.3264 -146.263 75.1434 -146.393 74.9566C-148.343 75.8493 -150.562 76.3573 -152.915 76.3573C-160.695 76.3573 -167 70.8405 -167 64.0314Z" fill="white"/>
<path d="M-93.2126 92.0818C-94.4938 92.5412 -95.872 92.7915 -97.31 92.7915C-102.293 92.7915 -106.573 89.7959 -108.456 85.508C-110.118 90.2479 -114.63 93.6468 -119.937 93.6468C-126.657 93.6468 -132.103 88.201 -132.103 81.4815C-132.103 81.3172 -132.095 81.1528 -132.092 80.9922C-137.481 81.5002 -142.696 79.6513 -145.979 75.5091C-146.121 75.326 -146.259 75.143 -146.39 74.9563C-148.339 75.849 -150.558 76.3569 -152.911 76.3569C-160.415 76.3569 -166.548 71.2211 -166.974 64.7482C-158.518 77.5484 -137.866 67.9268 -137.866 67.9268C-118.23 90.5504 -96.6713 70.9149 -96.6713 70.9149C-82.1566 97.382 -56.9707 89.4822 -56.9707 89.4822C-70.2042 83.0802 -70.8429 68.9913 -70.8429 68.9913C-43.5242 88.4139 -29.0095 72.8347 -29.0095 72.8347C-28.5837 87.1365 -49.0709 86.4941 -49.0709 86.4941C-49.0709 86.4941 -31.3552 112.319 -12.3583 100.366C6.63855 88.4139 -0.405899 67.4972 -0.405899 67.4972C23.7118 77.1002 35.9855 62.1074 35.9855 62.1074C37.4272 70.1118 29.9009 73.2605 29.9009 73.2605C44.961 76.1814 53.6265 69.5179 58.4597 62.5519C56.7714 74.1607 46.78 83.0802 34.7043 83.0802C33.4157 83.0802 32.1495 82.9756 30.9169 82.7814C29.251 93.4078 22.8378 101.33 15.1733 101.33C12.0171 101.33 9.07012 99.9816 6.58253 97.6546C1.59613 109.14 -9.84457 117.174 -23.164 117.174C-35.165 117.174 -45.642 110.653 -51.2447 100.96C-55.6447 106.451 -62.4015 109.969 -69.9876 109.969C-81.1332 109.969 -90.5009 102.376 -93.2089 92.0781L-93.2126 92.0818Z" fill="#DEF1FB"/>
</svg>
