<svg width="97" height="82" viewBox="0 0 97 82" fill="none" xmlns="http://www.w3.org/2000/svg">
<path fill-rule="evenodd" clip-rule="evenodd" d="M85.1849 11.4803C98.0592 21.2579 100.525 41.96 90.4034 59.508C80.2531 77.0561 61.0993 85.2566 46.1892 79.0059C42.3184 77.3715 38.8489 75.6511 34.7486 73.2712L54.6192 38.8633L74.4897 4.45538C78.59 6.83526 81.8588 8.95709 85.1849 11.509V11.4803Z" fill="url(#paint0_linear_501_1486)"/>
<path style="mix-blend-mode:screen" fill-rule="evenodd" clip-rule="evenodd" d="M84.7548 16.1253C93.6435 22.8922 96.6542 37.8883 91.3783 50.992C86.1024 64.0956 74.4037 70.6045 64.4541 66.4755C61.8735 65.4146 59.5223 64.239 56.741 62.6333L67.092 36.9707L77.4431 11.3082C80.2244 12.9139 82.4609 14.3762 84.7548 16.1253Z" fill="url(#paint1_radial_501_1486)"/>
<path style="mix-blend-mode:multiply" fill-rule="evenodd" clip-rule="evenodd" d="M86.0451 15.4086C96.9983 23.7525 99.4355 41.7593 91.2063 57.1855C83.5505 71.5221 69.2139 78.9198 57.0851 75.6511C49.4293 77.7729 41.5155 77.1421 34.7486 73.2425C38.8489 75.6224 42.347 77.3715 46.1892 78.9772C61.0993 85.2279 80.2531 77.0274 90.4034 59.4794C100.554 41.9313 98.0592 21.2292 85.1849 11.4516C81.8588 8.9284 78.6187 6.80658 74.5471 4.4267C78.59 6.7779 81.8301 10.0753 84.1813 14.0036C84.8121 14.4623 85.4143 14.8924 86.0451 15.3799V15.4086Z" fill="url(#paint2_radial_501_1486)"/>
<g style="mix-blend-mode:screen">
<path fill-rule="evenodd" clip-rule="evenodd" d="M76.6976 6.03235C91.2923 14.4623 94.5324 36.1966 83.8946 54.6049C73.2855 73.0131 52.8128 81.0703 38.2181 72.6403C23.6234 64.2104 20.3833 42.4761 31.0211 24.0678C41.6302 5.6596 62.1029 -2.39759 76.6976 6.03235Z" fill="white"/>
</g>
<path fill-rule="evenodd" clip-rule="evenodd" d="M74.4898 4.42671C89.916 13.3441 93.5288 35.9673 82.5756 54.9777C71.5938 73.988 50.2035 82.1599 34.7486 73.2712C19.3224 64.3538 15.7096 41.7306 26.6628 22.7203C37.6446 3.70988 59.0349 -4.462 74.4898 4.42671Z" fill="url(#paint3_radial_501_1486)"/>
<g style="mix-blend-mode:screen">
<path fill-rule="evenodd" clip-rule="evenodd" d="M58.5474 66.6476C58.3467 67.5078 57.5438 68.282 56.4543 68.5974C55.508 68.8554 54.5905 68.6834 53.9597 68.196C49.3433 69.2855 44.6696 68.9701 40.4259 66.9917C28.1824 61.2857 24.1968 43.881 31.5372 28.1107C35.5515 19.5088 42.1176 13.172 49.2286 10.1326C49.2859 9.12904 50.1461 8.15415 51.4078 7.81007C52.5547 7.49466 53.7016 7.81007 54.3038 8.55557C55.9381 8.24017 57.6012 8.06813 59.2069 8.12547C59.551 7.55201 60.3538 7.2366 61.214 7.40864C61.9022 7.55201 62.447 7.98211 62.6764 8.49823C64.1674 8.78496 65.6297 9.2724 67.0347 9.93189C79.2782 15.6379 83.2638 33.0425 75.9234 48.8128C71.9665 57.2714 65.5437 63.5509 58.5474 66.6476Z" fill="white"/>
</g>
<path fill-rule="evenodd" clip-rule="evenodd" d="M69.2139 11.4517C80.7692 18.1039 83.1778 35.5372 74.6045 50.3899C66.0312 65.2427 49.7447 71.8662 38.1894 65.1853C26.6341 58.5331 24.2255 41.0998 32.7989 26.2471C41.3722 11.3943 57.6586 4.77079 69.2139 11.4517Z" fill="url(#paint4_radial_501_1486)"/>
<path style="mix-blend-mode:multiply" opacity="0.5" fill-rule="evenodd" clip-rule="evenodd" d="M39.0783 32.1251C47.1928 18.0752 62.619 11.7957 73.5435 18.1039C75.1206 19.0214 76.4969 20.111 77.7012 21.4013C75.9521 17.1863 73.0848 13.6882 69.1852 11.423C57.6299 4.77079 41.3435 11.3943 32.7702 26.2184C24.1969 41.0711 26.6054 58.5045 38.1607 65.1567C38.9923 65.6441 39.8525 66.0455 40.7413 66.3896C32.8562 58.8772 31.8813 44.5119 39.0783 32.0964V32.1251Z" fill="url(#paint5_radial_501_1486)"/>
<path fill-rule="evenodd" clip-rule="evenodd" d="M36.5837 28.4548C44.4402 14.8637 58.7481 8.15412 69.9594 12.2257C70.3035 12.3691 70.6762 12.4838 71.0203 12.6558C70.7049 12.4264 70.4182 12.2257 70.1027 11.9963C69.816 11.7956 69.5006 11.6236 69.1852 11.4515C57.6299 4.79935 41.3435 11.4229 32.7702 26.2469C24.1969 41.0997 26.6054 58.533 38.1607 65.1852C38.4761 65.3573 38.7915 65.5293 39.107 65.7013C39.451 65.8734 39.7951 66.0454 40.1392 66.1888C39.8238 65.9594 39.5371 65.73 39.2503 65.472C30.1035 57.7875 28.7559 42.0459 36.6124 28.4548H36.5837Z" fill="url(#paint6_linear_501_1486)"/>
<path style="mix-blend-mode:multiply" fill-rule="evenodd" clip-rule="evenodd" d="M61.9022 11.0788C64.6835 10.9354 67.4075 11.3082 69.9594 12.2257C70.3035 12.3691 70.6762 12.4838 71.0203 12.6558C70.7049 12.4264 70.4182 12.2257 70.1027 11.9963C69.816 11.7956 69.5006 11.6236 69.1852 11.4515C57.6299 4.79935 41.3435 11.4229 32.7702 26.2469C24.1969 41.0997 26.6054 58.533 38.1607 65.1852C38.4761 65.3573 38.7915 65.5293 39.107 65.7013C39.451 65.8734 39.7951 66.0454 40.1392 66.1888C39.8238 65.9594 39.5371 65.73 39.2503 65.472C37.8453 64.2964 36.6124 62.92 35.5801 61.3717C27.0642 54.232 25.6592 39.5227 32.7702 26.7917C39.5371 14.663 51.7805 8.38351 61.9309 11.0788H61.9022Z" fill="url(#paint7_radial_501_1486)"/>
<path style="mix-blend-mode:screen" fill-rule="evenodd" clip-rule="evenodd" d="M71.7658 17.9031C51.3218 8.613 32.1967 35.2505 35.0067 52.4831C46.3326 48.2681 65.1423 38.978 71.7658 17.9031Z" fill="url(#paint8_radial_501_1486)"/>
<path d="M59.3988 56.9967C58.6178 57.0907 57.8072 57.1157 56.9673 57.0716C56.1651 57.0324 55.367 56.9612 54.5732 56.8579C52.7209 56.617 51.0029 56.2304 49.4191 55.6983L52.2158 34.2022C51.4598 34.1038 50.5924 33.9747 49.6137 33.8147C48.635 33.6548 47.8201 33.4184 47.1688 33.1054C47.1224 32.8712 47.0864 32.5568 47.0609 32.1622C47.0731 31.7726 47.0875 31.3669 47.1039 30.9452C47.1581 30.5284 47.1914 30.1252 47.2036 29.7356C47.2578 29.3188 47.2995 28.9982 47.3287 28.7738C47.3996 28.2288 47.4874 27.7022 47.5919 27.1942C47.7384 26.659 47.9227 26.1287 48.1449 25.6034C48.38 25.5688 48.5942 25.5478 48.7874 25.5403C49.0183 25.5377 49.2472 25.5512 49.4741 25.5807L68.1861 28.0152C68.2453 28.4468 68.2667 28.8734 68.2503 29.2951C68.2338 29.7168 68.1985 30.136 68.1443 30.5528C68.1026 30.8734 68.0294 31.2877 67.9249 31.7957C67.8623 32.2766 67.7788 32.7711 67.6742 33.2791C67.6117 33.76 67.5302 34.2385 67.4298 34.7145C67.3295 35.1904 67.2395 35.5863 67.16 35.902C66.3831 35.9639 65.5599 35.9383 64.6905 35.8252C63.821 35.7121 63.0083 35.6063 62.2523 35.508L59.5369 56.379C59.5244 56.4751 59.5098 56.5873 59.4931 56.7156C59.4806 56.8118 59.4492 56.9055 59.3988 56.9967Z" fill="#1D1936" fill-opacity="0.57"/>
<mask id="mask0_501_1486" style="mask-type:alpha" maskUnits="userSpaceOnUse" x="45" y="25" width="23" height="32">
<path d="M58.3328 56.5592C57.5517 56.6532 56.7412 56.6782 55.9012 56.6341C55.099 56.5949 54.301 56.5237 53.5071 56.4204C51.6548 56.1794 49.9368 55.7929 48.353 55.2608L51.1497 33.7647C50.3937 33.6663 49.5263 33.5371 48.5476 33.3772C47.569 33.2173 46.754 32.9808 46.1028 32.6679C46.0563 32.4336 46.0204 32.1192 45.9948 31.7247C46.0071 31.335 46.0214 30.9294 46.0378 30.5077C46.0921 30.0909 46.1253 29.6877 46.1375 29.2981C46.1918 28.8813 46.2335 28.5607 46.2627 28.3363C46.3336 27.7912 46.4213 27.2647 46.5258 26.7567C46.6724 26.2215 46.8567 25.6912 47.0788 25.1659C47.3139 25.1313 47.5281 25.1102 47.7213 25.1028C47.9523 25.1002 48.1812 25.1137 48.408 25.1432L67.12 27.5777C67.1792 28.0092 67.2006 28.4358 67.1842 28.8575C67.1678 29.2792 67.1324 29.6985 67.0782 30.1153C67.0365 30.4359 66.9634 30.8502 66.8588 31.3582C66.7963 31.8391 66.7127 32.3336 66.6082 32.8416C66.5456 33.3225 66.4641 33.801 66.3638 34.2769C66.2634 34.7529 66.1735 35.1487 66.094 35.4644C65.3171 35.5264 64.4939 35.5008 63.6244 35.3877C62.755 35.2745 61.9422 35.1688 61.1862 35.0704L58.4708 55.9414C58.4583 56.0376 58.4437 56.1498 58.427 56.278C58.4145 56.3742 58.3831 56.468 58.3328 56.5592Z" fill="white"/>
</mask>
<g mask="url(#mask0_501_1486)">
<path d="M40.2918 20.4631H72.4451V64.4624H40.2918V20.4631Z" fill="white"/>
<rect opacity="0.3" x="63.6517" y="23.8477" width="13.5382" height="43.9992" transform="rotate(19.7922 63.6517 23.8477)" fill="#7EB0EF"/>
</g>
<path fill-rule="evenodd" clip-rule="evenodd" d="M6.79966 41.8797C-0.452175 47.3872 -1.84117 59.0483 3.86016 68.9327C9.57764 78.8172 20.3666 83.4364 28.7651 79.9155C30.9455 78.9949 32.8998 78.0258 35.2094 76.6852L24.0167 57.304L12.824 37.9227C10.5144 39.2632 8.67318 40.4584 6.79966 41.8958V41.8797Z" fill="url(#paint9_linear_501_1486)"/>
<path style="mix-blend-mode:screen" fill-rule="evenodd" clip-rule="evenodd" d="M7.04193 44.496C2.0351 48.3077 0.339233 56.7547 3.31103 64.1357C6.28283 71.5168 12.8725 75.1831 18.4769 72.8573C19.9305 72.2597 21.2549 71.5975 22.8215 70.6931L16.991 56.2379L11.1605 41.7827C9.5938 42.6871 8.33402 43.5108 7.04193 44.496Z" fill="url(#paint10_radial_501_1486)"/>
<path style="mix-blend-mode:multiply" fill-rule="evenodd" clip-rule="evenodd" d="M6.31513 44.0924C0.145416 48.7923 -1.22742 58.9352 3.40793 67.6245C7.72027 75.7 15.7958 79.867 22.6277 78.0258C26.94 79.2209 31.3977 78.8656 35.2094 76.6691C32.8998 78.0096 30.9294 78.9948 28.7651 79.8993C20.3666 83.4202 9.57764 78.801 3.86016 68.9166C-1.85732 59.0321 -0.452175 47.371 6.79966 41.8635C8.67318 40.4422 10.4983 39.247 12.7917 37.9065C10.5144 39.2309 8.68933 41.0883 7.36494 43.301C7.00962 43.5594 6.67045 43.8016 6.31513 44.0762V44.0924Z" fill="url(#paint11_radial_501_1486)"/>
<g style="mix-blend-mode:screen">
<path fill-rule="evenodd" clip-rule="evenodd" d="M11.5804 38.8109C3.35947 43.5593 1.5344 55.8018 7.52645 66.1708C13.5023 76.5398 25.0342 81.0783 33.2551 76.3298C41.476 71.5814 43.3011 59.3389 37.309 48.9699C31.3331 38.6009 19.8013 34.0625 11.5804 38.8109Z" fill="white"/>
</g>
<path fill-rule="evenodd" clip-rule="evenodd" d="M12.824 37.9065C4.13473 42.9295 2.0997 55.6727 8.26941 66.3808C14.4553 77.089 26.504 81.692 35.2094 76.6852C43.8987 71.6622 45.9337 58.919 39.764 48.2109C33.5781 37.5027 21.5294 32.8996 12.824 37.9065Z" fill="url(#paint12_radial_501_1486)"/>
<g style="mix-blend-mode:screen">
<path fill-rule="evenodd" clip-rule="evenodd" d="M21.804 72.9543C21.9171 73.4388 22.3693 73.8749 22.983 74.0526C23.516 74.1979 24.0329 74.101 24.3882 73.8264C26.9885 74.4402 29.6211 74.2625 32.0115 73.1481C38.908 69.934 41.153 60.1303 37.0183 51.2472C34.7572 46.4019 31.0586 42.8325 27.0531 41.1205C27.0208 40.5552 26.5363 40.0061 25.8256 39.8123C25.1796 39.6346 24.5335 39.8123 24.1944 40.2322C23.2738 40.0545 22.337 39.9576 21.4325 39.9899C21.2387 39.6669 20.7865 39.4893 20.302 39.5862C19.9143 39.6669 19.6075 39.9092 19.4783 40.1999C18.6384 40.3614 17.8147 40.636 17.0233 41.0075C10.1268 44.2215 7.88179 54.0252 12.0165 62.9083C14.2453 67.6729 17.8632 71.21 21.804 72.9543Z" fill="white"/>
</g>
<path fill-rule="evenodd" clip-rule="evenodd" d="M15.7958 41.8635C9.28692 45.6106 7.93023 55.4304 12.7594 63.7967C17.5886 72.1629 26.7624 75.8938 33.2713 72.1306C39.7802 68.3836 41.1368 58.5637 36.3077 50.1975C31.4785 41.8312 22.3047 38.1003 15.7958 41.8635Z" fill="url(#paint13_radial_501_1486)"/>
<path style="mix-blend-mode:multiply" opacity="0.5" fill-rule="evenodd" clip-rule="evenodd" d="M32.7706 53.5084C28.1998 45.5944 19.5106 42.0573 13.357 45.6105C12.4687 46.1274 11.6934 46.7411 11.0151 47.4679C12.0003 45.0937 13.6154 43.1233 15.812 41.8473C22.3208 38.1003 31.4947 41.8312 36.3238 50.1813C41.153 58.5476 39.7963 68.3674 33.2874 72.1145C32.819 72.389 32.3345 72.6151 31.8338 72.809C36.2754 68.5774 36.8245 60.4857 32.7706 53.4923V53.5084Z" fill="url(#paint14_radial_501_1486)"/>
<path fill-rule="evenodd" clip-rule="evenodd" d="M34.1757 51.441C29.7503 43.7854 21.691 40.0061 15.3759 42.2995C15.1821 42.3803 14.9721 42.4449 14.7783 42.5418C14.956 42.4126 15.1175 42.2995 15.2951 42.1703C15.4566 42.0573 15.6343 41.9604 15.812 41.8635C22.3208 38.1164 31.4947 41.8473 36.3238 50.1974C41.153 58.5637 39.7963 68.3835 33.2874 72.1306C33.1098 72.2275 32.9321 72.3244 32.7544 72.4213C32.5606 72.5182 32.3668 72.6151 32.173 72.6959C32.3507 72.5666 32.5122 72.4374 32.6737 72.2921C37.8259 67.9636 38.585 59.0967 34.1596 51.441H34.1757Z" fill="url(#paint15_linear_501_1486)"/>
<path style="mix-blend-mode:multiply" fill-rule="evenodd" clip-rule="evenodd" d="M19.9143 41.6535C18.3477 41.5727 16.8133 41.7827 15.3759 42.2995C15.1821 42.3803 14.9721 42.4449 14.7783 42.5418C14.956 42.4126 15.1175 42.2995 15.2951 42.1703C15.4566 42.0573 15.6343 41.9604 15.812 41.8635C22.3208 38.1164 31.4947 41.8473 36.3238 50.1974C41.153 58.5637 39.7963 68.3835 33.2874 72.1306C33.1098 72.2275 32.9321 72.3244 32.7544 72.4213C32.5606 72.5182 32.3668 72.6151 32.173 72.6959C32.3507 72.5666 32.5122 72.4374 32.6737 72.2921C33.4651 71.6299 34.1596 70.8546 34.741 69.9825C39.5379 65.9609 40.3293 57.6754 36.3238 50.5043C32.5122 43.6724 25.6157 40.1353 19.8982 41.6535H19.9143Z" fill="url(#paint16_radial_501_1486)"/>
<path style="mix-blend-mode:screen" fill-rule="evenodd" clip-rule="evenodd" d="M14.3584 45.4975C25.8741 40.2645 36.6468 55.2689 35.064 64.9757C28.6844 62.6015 18.0893 57.3685 14.3584 45.4975Z" fill="url(#paint17_radial_501_1486)"/>
<path style="mix-blend-mode:screen" fill-rule="evenodd" clip-rule="evenodd" d="M20.4958 41.8151C20.4958 46.8543 24.582 50.9405 29.6211 50.9405C34.6603 50.9405 38.7465 46.8543 38.7465 41.8151C38.7465 36.776 34.6603 32.6898 29.6211 32.6898C24.582 32.6898 20.4958 36.776 20.4958 41.8151Z" fill="url(#paint18_radial_501_1486)"/>
<path d="M21.3244 67.5181C21.7644 67.571 22.2209 67.5851 22.6941 67.5603C23.1459 67.5382 23.5954 67.4981 24.0426 67.4399C25.086 67.3042 26.0537 67.0864 26.9458 66.7867L25.3705 54.6784C25.7963 54.623 26.2849 54.5502 26.8362 54.4601C27.3875 54.3701 27.8465 54.2369 28.2133 54.0606C28.2395 53.9286 28.2597 53.7515 28.2741 53.5293C28.2672 53.3098 28.2592 53.0813 28.2499 52.8438C28.2194 52.609 28.2006 52.3819 28.1937 52.1624C28.1632 51.9277 28.1397 51.7471 28.1233 51.6207C28.0833 51.3137 28.0339 51.0171 27.975 50.7309C27.8925 50.4295 27.7887 50.1308 27.6636 49.8349C27.5311 49.8154 27.4105 49.8035 27.3016 49.7993C27.1715 49.7979 27.0426 49.8055 26.9148 49.8221L16.3747 51.1934C16.3414 51.4365 16.3293 51.6768 16.3386 51.9143C16.3478 52.1518 16.3677 52.388 16.3983 52.6227C16.4218 52.8033 16.463 53.0367 16.5219 53.3229C16.5571 53.5938 16.6042 53.8723 16.663 54.1585C16.6983 54.4293 16.7442 54.6988 16.8007 54.9669C16.8572 55.235 16.9079 55.458 16.9527 55.6358C17.3903 55.6707 17.854 55.6563 18.3437 55.5926C18.8335 55.5289 19.2913 55.4693 19.7171 55.4139L21.2467 67.1701C21.2537 67.2243 21.2619 67.2875 21.2713 67.3597C21.2784 67.4139 21.2961 67.4667 21.3244 67.5181Z" fill="#1D1936" fill-opacity="0.57"/>
<mask id="mask1_501_1486" style="mask-type:alpha" maskUnits="userSpaceOnUse" x="16" y="49" width="13" height="19">
<path d="M21.9249 67.2717C22.3649 67.3246 22.8214 67.3387 23.2946 67.3138C23.7464 67.2918 24.1959 67.2517 24.6431 67.1935C25.6865 67.0577 26.6542 66.84 27.5463 66.5403L25.971 54.432C26.3968 54.3765 26.8854 54.3038 27.4367 54.2137C27.988 54.1236 28.447 53.9904 28.8138 53.8142C28.84 53.6822 28.8602 53.5051 28.8746 53.2829C28.8677 53.0634 28.8597 52.8349 28.8504 52.5974C28.8199 52.3626 28.8011 52.1355 28.7942 51.916C28.7637 51.6812 28.7402 51.5007 28.7238 51.3742C28.6838 51.0672 28.6344 50.7707 28.5755 50.4845C28.493 50.183 28.3892 49.8843 28.2641 49.5884C28.1316 49.5689 28.011 49.5571 27.9021 49.5529C27.772 49.5514 27.6431 49.559 27.5153 49.5757L16.9752 50.947C16.9419 51.19 16.9298 51.4303 16.9391 51.6679C16.9483 51.9054 16.9682 52.1416 16.9988 52.3763C17.0223 52.5569 17.0635 52.7903 17.1224 53.0764C17.1576 53.3473 17.2047 53.6259 17.2635 53.912C17.2988 54.1829 17.3447 54.4524 17.4012 54.7205C17.4577 54.9886 17.5084 55.2116 17.5532 55.3894C17.9908 55.4243 18.4545 55.4099 18.9442 55.3462C19.434 55.2824 19.8918 55.2229 20.3176 55.1675L21.8472 66.9237C21.8542 66.9779 21.8624 67.0411 21.8718 67.1133C21.8789 67.1675 21.8966 67.2203 21.9249 67.2717Z" fill="white"/>
</mask>
<g mask="url(#mask1_501_1486)">
<rect width="18.1113" height="24.7839" transform="matrix(-1 0 0 1 32.0871 46.9395)" fill="white"/>
<rect opacity="0.3" width="7.62581" height="24.7839" transform="matrix(-0.940927 0.33861 0.33861 0.940927 18.9288 48.8459)" fill="#7EB0EF"/>
</g>
<defs>
<linearGradient id="paint0_linear_501_1486" x1="52.6407" y1="83.5936" x2="92.3819" y2="14.7491" gradientUnits="userSpaceOnUse">
<stop stop-color="#0C5EBA"/>
<stop offset="0.64" stop-color="#1171EA"/>
<stop offset="1" stop-color="#075CBB"/>
</linearGradient>
<radialGradient id="paint1_radial_501_1486" cx="0" cy="0" r="1" gradientUnits="userSpaceOnUse" gradientTransform="translate(67.1781 37.6302) scale(37.3326 37.3326)">
<stop stop-color="white"/>
<stop offset="0.09" stop-color="#F7F7F7"/>
<stop offset="0.22" stop-color="#E2E2E2"/>
<stop offset="0.38" stop-color="#BFBFBF"/>
<stop offset="0.56" stop-color="#8F8F8F"/>
<stop offset="0.76" stop-color="#525252"/>
<stop offset="0.98" stop-color="#080808"/>
<stop offset="1"/>
</radialGradient>
<radialGradient id="paint2_radial_501_1486" cx="0" cy="0" r="1" gradientUnits="userSpaceOnUse" gradientTransform="translate(47.5942 35.0784) scale(54.1638 54.1638)">
<stop offset="0.51" stop-color="white"/>
<stop offset="0.77" stop-color="#C3CEDF"/>
<stop offset="1" stop-color="#184FAB"/>
</radialGradient>
<radialGradient id="paint3_radial_501_1486" cx="0" cy="0" r="1" gradientUnits="userSpaceOnUse" gradientTransform="translate(29.4727 7.78148) scale(74.1777 74.1777)">
<stop stop-color="#9BD2FF"/>
<stop offset="1" stop-color="#037DE1"/>
</radialGradient>
<radialGradient id="paint4_radial_501_1486" cx="0" cy="0" r="1" gradientUnits="userSpaceOnUse" gradientTransform="translate(29.9889 7.17935) scale(66.1492 66.1492)">
<stop stop-color="#9AD2FF"/>
<stop offset="1" stop-color="#2EA6FF"/>
</radialGradient>
<radialGradient id="paint5_radial_501_1486" cx="0" cy="0" r="1" gradientUnits="userSpaceOnUse" gradientTransform="translate(67.6942 44.77) scale(49.0313 49.0313)">
<stop offset="0.51" stop-color="white"/>
<stop offset="0.7" stop-color="#C2CBDA"/>
<stop offset="1" stop-color="#386BCE"/>
</radialGradient>
<linearGradient id="paint6_linear_501_1486" x1="28.6699" y1="59.7086" x2="59.2356" y2="6.7778" gradientUnits="userSpaceOnUse">
<stop stop-color="#1165D0"/>
<stop offset="1" stop-color="#053C7B"/>
</linearGradient>
<radialGradient id="paint7_radial_501_1486" cx="0" cy="0" r="1" gradientUnits="userSpaceOnUse" gradientTransform="translate(68.5831 46.863) scale(47.5403 47.5403)">
<stop offset="0.51" stop-color="white"/>
<stop offset="0.82" stop-color="#C3CCD8"/>
<stop offset="1" stop-color="#2071D8"/>
</radialGradient>
<radialGradient id="paint8_radial_501_1486" cx="0" cy="0" r="1" gradientUnits="userSpaceOnUse" gradientTransform="translate(18.7203 -2.91365) scale(63.1959 63.1959)">
<stop stop-color="white"/>
<stop offset="0.11" stop-color="#FAFAFA"/>
<stop offset="0.23" stop-color="#ECECEC"/>
<stop offset="0.36" stop-color="#D6D6D6"/>
<stop offset="0.5" stop-color="#B6B6B6"/>
<stop offset="0.64" stop-color="#8E8E8E"/>
<stop offset="0.78" stop-color="#5C5C5C"/>
<stop offset="0.92" stop-color="#222222"/>
<stop offset="1"/>
</radialGradient>
<linearGradient id="paint9_linear_501_1486" x1="25.1311" y1="82.4996" x2="2.74573" y2="43.7209" gradientUnits="userSpaceOnUse">
<stop stop-color="#0C5EBA"/>
<stop offset="0.64" stop-color="#1171EA"/>
<stop offset="1" stop-color="#075CBB"/>
</linearGradient>
<radialGradient id="paint10_radial_501_1486" cx="0" cy="0" r="1" gradientUnits="userSpaceOnUse" gradientTransform="translate(16.9425 56.6093) rotate(180) scale(21.0287 21.0287)">
<stop stop-color="white"/>
<stop offset="0.09" stop-color="#F7F7F7"/>
<stop offset="0.22" stop-color="#E2E2E2"/>
<stop offset="0.38" stop-color="#BFBFBF"/>
<stop offset="0.56" stop-color="#8F8F8F"/>
<stop offset="0.76" stop-color="#525252"/>
<stop offset="0.98" stop-color="#080808"/>
<stop offset="1"/>
</radialGradient>
<radialGradient id="paint11_radial_501_1486" cx="0" cy="0" r="1" gradientUnits="userSpaceOnUse" gradientTransform="translate(27.9737 55.172) rotate(180) scale(30.5094 30.5094)">
<stop offset="0.51" stop-color="white"/>
<stop offset="0.77" stop-color="#C3CEDF"/>
<stop offset="1" stop-color="#184FAB"/>
</radialGradient>
<radialGradient id="paint12_radial_501_1486" cx="0" cy="0" r="1" gradientUnits="userSpaceOnUse" gradientTransform="translate(38.1812 39.7962) rotate(180) scale(41.7828 41.7828)">
<stop stop-color="#9BD2FF"/>
<stop offset="1" stop-color="#037DE1"/>
</radialGradient>
<radialGradient id="paint13_radial_501_1486" cx="0" cy="0" r="1" gradientUnits="userSpaceOnUse" gradientTransform="translate(37.8905 39.457) rotate(180) scale(37.2605 37.2605)">
<stop stop-color="#9AD2FF"/>
<stop offset="1" stop-color="#2EA6FF"/>
</radialGradient>
<radialGradient id="paint14_radial_501_1486" cx="0" cy="0" r="1" gradientUnits="userSpaceOnUse" gradientTransform="translate(16.6518 60.631) rotate(180) scale(27.6183)">
<stop offset="0.51" stop-color="white"/>
<stop offset="0.7" stop-color="#C2CBDA"/>
<stop offset="1" stop-color="#386BCE"/>
</radialGradient>
<linearGradient id="paint15_linear_501_1486" x1="38.6334" y1="69.0457" x2="21.4164" y2="39.2308" gradientUnits="userSpaceOnUse">
<stop stop-color="#1165D0"/>
<stop offset="1" stop-color="#053C7B"/>
</linearGradient>
<radialGradient id="paint16_radial_501_1486" cx="0" cy="0" r="1" gradientUnits="userSpaceOnUse" gradientTransform="translate(16.1511 61.81) rotate(180) scale(26.7785 26.7785)">
<stop offset="0.51" stop-color="white"/>
<stop offset="0.82" stop-color="#C3CCD8"/>
<stop offset="1" stop-color="#2071D8"/>
</radialGradient>
<radialGradient id="paint17_radial_501_1486" cx="0" cy="0" r="1" gradientUnits="userSpaceOnUse" gradientTransform="translate(44.2379 33.7718) rotate(180) scale(35.597 35.597)">
<stop stop-color="white"/>
<stop offset="0.11" stop-color="#FAFAFA"/>
<stop offset="0.23" stop-color="#ECECEC"/>
<stop offset="0.36" stop-color="#D6D6D6"/>
<stop offset="0.5" stop-color="#B6B6B6"/>
<stop offset="0.64" stop-color="#8E8E8E"/>
<stop offset="0.78" stop-color="#5C5C5C"/>
<stop offset="0.92" stop-color="#222222"/>
<stop offset="1"/>
</radialGradient>
<radialGradient id="paint18_radial_501_1486" cx="0" cy="0" r="1" gradientUnits="userSpaceOnUse" gradientTransform="translate(29.605 41.8151) rotate(180) scale(9.12536)">
<stop stop-color="#CCF5FC"/>
<stop offset="0.12" stop-color="#A6C7CD"/>
<stop offset="0.3" stop-color="#748B8F"/>
<stop offset="0.47" stop-color="#4A595C"/>
<stop offset="0.63" stop-color="#2A3234"/>
<stop offset="0.78" stop-color="#131617"/>
<stop offset="0.91" stop-color="#050606"/>
<stop offset="1"/>
</radialGradient>
</defs>
</svg>
